<?xml version="1.0" encoding="UTF-8"?>
<svg width="32px" height="32px" viewBox="0 0 32 32" version="1.1" xmlns="http://www.w3.org/2000/svg" xmlns:xlink="http://www.w3.org/1999/xlink">
	<g id="cog" fill="#FFFFFF" fill-rule="nonzero">
		<path d="M16,0 C16.8717223,0 17.7271623,0.069712731 18.5610491,0.203867303 L19.3100094,3.01952711 C20.5526745,3.33721714 21.7257256,3.82884955 22.8016917,4.46695351 L25.3304491,3.00071865 C26.7312903,4.00797376 27.9626857,5.23606777 28.9736732,6.6340387 L27.503796,9.16905781 C28.1419,10.245024 28.6335324,11.418075 28.9512224,12.6607402 L31.7925195,13.4165924 C31.9290352,14.2575446 32,15.1204849 32,16 C32,16.8688941 31.930739,17.7216114 31.7974365,18.5529321 L28.9512224,19.3100094 C28.6335324,20.5526745 28.1419,21.7257256 27.503796,22.8016917 L28.9830711,25.3529525 C27.9757301,26.748818 26.748818,27.9757301 25.3529525,28.9830711 L22.8016917,27.503796 C21.7257256,28.1419 20.5526745,28.6335324 19.3100094,28.9512224 L18.5529613,31.7974318 C17.7216314,31.9307373 16.8689043,32 16,32 C15.1204951,32 14.2575645,31.9290369 13.4166216,31.7925242 L12.6607402,28.9512224 C11.418075,28.6335324 10.245024,28.1419 9.16905781,27.503796 L6.6340387,28.9736732 C5.23606777,27.9626857 4.00797376,26.7312903 3.00071865,25.3304491 L4.46695351,22.8016917 C3.82884955,21.7257256 3.33721714,20.5526745 3.01952711,19.3100094 L0.203867303,18.5610491 C0.069712731,17.7271623 0,16.8717223 0,16 C0,15.1176669 0.0714201755,14.2520149 0.208794809,13.4085097 L3.01952711,12.6607402 C3.33721714,11.418075 3.82884955,10.245024 4.46695351,9.16905781 L3.01011557,6.65649594 C4.02100572,5.25356777 5.25356777,4.02100572 6.65649594,3.01011557 L9.16905781,4.46695351 C10.245024,3.82884955 11.418075,3.33721714 12.6607402,3.01952711 L13.4085097,0.208794809 C14.2520149,0.0714201755 15.1176669,0 16,0 Z M15.9853748,9.44789762 C12.3748258,9.44789762 9.44789762,12.3748258 9.44789762,15.9853748 C9.44789762,19.5959237 12.3748258,22.5228519 15.9853748,22.5228519 C19.5959237,22.5228519 22.5228519,19.5959237 22.5228519,15.9853748 C22.5228519,12.3748258 19.5959237,9.44789762 15.9853748,9.44789762 Z" id="Combined-Shape-Copy"></path>
	</g>
</svg>